<svg width="40" height="40" viewBox="0 0 40 40" fill="none" xmlns="http://www.w3.org/2000/svg">
<circle cx="20" cy="20" r="20" fill="#D9D9D9" fill-opacity="0.32"/>
<g clip-path="url(#clip0_14_935)">
<path d="M30 20C30 14.4772 25.5228 10 20 10C14.4772 10 10 14.4771 10 20C10 24.9913 13.6569 29.1284 18.4375 29.8785V22.8906H15.8984V20H18.4375V17.7969C18.4375 15.2906 19.9305 13.9063 22.2146 13.9063C23.3088 13.9063 24.4531 14.1016 24.4531 14.1016V16.5625H23.1922C21.9498 16.5625 21.5625 17.3334 21.5625 18.1242V20H24.3359L23.8926 22.8906H21.5625V29.8785C26.3431 29.1284 30 24.9913 30 20Z" fill="#1877F2"/>
<path d="M23.8926 22.8906L24.3359 20H21.5625V18.1242C21.5625 17.3333 21.9499 16.5625 23.1922 16.5625H24.4531V14.1016C24.4531 14.1016 23.3088 13.9062 22.2146 13.9062C19.9305 13.9062 18.4375 15.2906 18.4375 17.7969V20H15.8984V22.8906H18.4375V29.8785C18.9544 29.9595 19.4768 30.0001 20 30C20.5232 30.0002 21.0456 29.9595 21.5625 29.8785V22.8906H23.8926Z" fill="white"/>
</g>
<defs>
<clipPath id="clip0_14_935">
<rect width="20" height="20" fill="white" transform="translate(10 10)"/>
</clipPath>
</defs>
</svg>
