<svg width="64" height="64" viewBox="0 0 64 64" fill="none" xmlns="http://www.w3.org/2000/svg">
<circle cx="32" cy="32" r="31.5" fill="#FFAF22" fill-opacity="0.08" stroke="#FFAF22"/>
<path d="M28.25 23V24.5M24.5 28.25H23M41 28.25H39.5M24.5 32H23M41 32H39.5M24.5 35.75H23M41 35.75H39.5M28.25 39.5V41M32 23V24.5M32 39.5V41M35.75 23V24.5M35.75 39.5V41M26.75 39.5H37.25C37.8467 39.5 38.419 39.2629 38.841 38.841C39.2629 38.419 39.5 37.8467 39.5 37.25V26.75C39.5 26.1533 39.2629 25.581 38.841 25.159C38.419 24.7371 37.8467 24.5 37.25 24.5H26.75C26.1533 24.5 25.581 24.7371 25.159 25.159C24.7371 25.581 24.5 26.1533 24.5 26.75V37.25C24.5 37.8467 24.7371 38.419 25.159 38.841C25.581 39.2629 26.1533 39.5 26.75 39.5ZM27.5 27.5H36.5V36.5H27.5V27.5Z" stroke="#FFAF22" stroke-width="1.5" stroke-linecap="round" stroke-linejoin="round"/>
</svg>
