<svg width="40" height="40" viewBox="0 0 40 40" fill="none" xmlns="http://www.w3.org/2000/svg">
<circle cx="20" cy="20" r="20" fill="#D9D9D9" fill-opacity="0.32"/>
<path d="M27.9525 15.9201C27.9647 16.0966 27.9647 16.2728 27.9647 16.4508C27.9647 21.8726 23.837 28.1258 16.2897 28.1258V28.1226C14.06 28.1258 11.8766 27.4871 10 26.283C10.3242 26.322 10.65 26.3416 10.9766 26.3423C12.8245 26.3438 14.6194 25.724 16.0727 24.5825C15.2164 24.5663 14.3866 24.283 13.6993 23.7721C13.012 23.2611 12.5015 22.5482 12.2392 21.733C12.8544 21.8517 13.4881 21.8272 14.0919 21.6622C12.1775 21.2755 10.8003 19.5936 10.8003 17.6403V17.5883C11.371 17.9062 12.0097 18.0823 12.6627 18.1019C10.8594 16.8969 10.3039 14.4983 11.3927 12.6231C12.4228 13.8907 13.7081 14.9274 15.165 15.666C16.6219 16.4045 18.2179 16.8283 19.8492 16.9098C19.6866 16.2096 19.7107 15.479 19.919 14.7911C20.1274 14.1031 20.5127 13.4819 21.0364 12.9895C22.6891 11.4359 25.2883 11.5156 26.8417 13.1675C27.7607 12.986 28.6419 12.6491 29.4475 12.1712C29.1412 13.1213 28.5002 13.9279 27.6437 14.4408C28.4571 14.3449 29.2515 14.1271 30 13.7947C29.4493 14.6193 28.756 15.3391 27.9525 15.9201Z" fill="#1D9BF0"/>
</svg>
